<?xml version="1.0" standalone="no"?>
<!DOCTYPE svg PUBLIC "-//W3C//DTD SVG 20010904//EN"
 "http://www.w3.org/TR/2001/REC-SVG-20010904/DTD/svg10.dtd">
<svg version="1.0" xmlns="http://www.w3.org/2000/svg"
 width="96.000000pt" height="96.000000pt" viewBox="0 0 96.000000 96.000000"
 preserveAspectRatio="xMidYMid meet">
<metadata>
Created by potrace 1.14, written by Peter Selinger 2001-2017
</metadata>
<g transform="translate(0.000000,96.000000) scale(0.100000,-0.100000)"
fill="#000000" stroke="none">
<path d="M595 884 c-22 -7 -119 -40 -215 -74 -96 -34 -193 -67 -215 -74 l-40
-12 -3 -211 -2 -212 32 10 c18 6 41 13 51 16 15 5 17 -2 17 -60 l0 -66 41 14
c23 8 45 15 50 15 5 0 9 -29 9 -64 l0 -65 28 9 c15 4 113 38 217 75 105 37
208 72 230 79 l40 12 3 212 2 211 -41 -14 c-23 -8 -45 -15 -50 -15 -5 0 -9 29
-9 65 l0 64 -41 -14 c-23 -8 -45 -15 -50 -15 -4 0 -9 28 -11 63 l-3 63 -40
-12z"/>
</g>
</svg>
