<svg width="19" height="20" viewBox="0 0 19 20" fill="none" xmlns="http://www.w3.org/2000/svg">
<path d="M5 5.5V16.9L2 14.5V3.1L5 5.5ZM2.4 0.7C3.7 1.6 5 2 6.8 2H16V0H1C0.4 0 0 0.4 0 1V15C0 15.3 0.1 15.6 0.4 15.8L5.3 19.7C6 20.3 7 19.9 7 19V18H16V16H7V5C7 4.7 6.9 4.4 6.6 4.2L2.4 0.8V0.7Z" fill="#1E222D"/>
<path d="M18.3 10C18.8 9.8 19 9.4 19 9C19 8.5 18.8 8.2 18.3 8C16.6 7.3 15 6 15 4H13C13 6.1 14 7.4 15.6 7.9V8H9V10H15.6V10.1C14 10.6 13 11.9 13 14H15C15 12 16.6 10.7 18.3 10Z" fill="#1E222D"/>
</svg>
