<svg width="12" height="12" viewBox="0 0 12 12" fill="none" xmlns="http://www.w3.org/2000/svg">
<path d="M5.80902 12C4.6601 12 3.53699 11.6481 2.5817 10.9888C1.62641 10.3295 0.881859 9.39246 0.442188 8.2961C0.002517 7.19975 -0.112521 5.99335 0.111621 4.82946C0.335763 3.66557 0.889019 2.59648 1.70142 1.75736C2.51383 0.918247 3.5489 0.346802 4.67574 0.115291C5.80258 -0.11622 6.97058 0.00259975 8.03203 0.456725C9.09349 0.910851 10.0007 1.67989 10.639 2.66658C11.2773 3.65328 11.618 4.81331 11.618 6C11.6163 7.59074 11.0037 9.11581 9.91467 10.2406C8.82565 11.3655 7.34913 11.9982 5.80902 12ZM5.22812 8.4V9.6H6.38992V8.4H5.22812ZM5.80902 2.4C5.65496 2.4 5.5072 2.46322 5.39826 2.57574C5.28932 2.68826 5.22812 2.84087 5.22812 3V6.6C5.22812 6.75913 5.28932 6.91174 5.39826 7.02427C5.5072 7.13679 5.65496 7.2 5.80902 7.2C5.96308 7.2 6.11084 7.13679 6.21978 7.02427C6.32872 6.91174 6.38992 6.75913 6.38992 6.6V3C6.38992 2.84087 6.32872 2.68826 6.21978 2.57574C6.11084 2.46322 5.96308 2.4 5.80902 2.4Z" fill="#BBE1C3"/>
</svg>
