<svg width="22" height="22" viewBox="0 0 22 22" fill="none" xmlns="http://www.w3.org/2000/svg">
<path d="M11 0C4.928 0 0 4.928 0 11C0 17.072 4.928 22 11 22C17.083 22 22 17.072 22 11C22 4.928 17.083 0 11 0ZM6.171 18.348C6.611 15.884 8.371 14.091 11 14.091C13.629 14.091 15.389 15.895 15.829 18.359C14.443 19.261 12.782 19.8 11 19.8C9.218 19.8 7.557 19.261 6.171 18.348ZM11 9.911C10.087 9.911 9.35 9.174 9.35 8.261C9.35 7.348 10.087 6.611 11 6.611C11.913 6.611 12.65 7.348 12.65 8.261C12.65 9.174 11.913 9.911 11 9.911ZM17.666 16.742C16.852 14.388 15.037 12.485 12.342 12.012V11.858C13.805 11.308 14.85 9.911 14.85 8.261C14.85 6.138 13.123 4.411 11 4.411C8.877 4.411 7.15 6.138 7.15 8.261C7.15 9.911 8.195 11.308 9.658 11.858V12.012C6.963 12.485 5.148 14.388 4.334 16.742C3.003 15.202 2.2 13.2 2.2 11C2.2 6.138 6.138 2.2 11 2.2C15.862 2.2 19.8 6.138 19.8 11C19.8 13.2 18.997 15.202 17.666 16.742Z" fill="#1E222D"/>
</svg>
